<svg width="20" height="21" viewBox="0 0 20 21" fill="none" xmlns="http://www.w3.org/2000/svg">
<path d="M10 17.2581L9.9979 17.2581C8.65825 17.2637 7.33696 16.9465 6.14581 16.3335L5.97835 16.2473L5.79564 16.293L2.8566 17.0283L3.7976 14.832L3.91236 14.5641L3.73584 14.3322C2.95163 13.3021 2.5 12.0739 2.5 10.7581C2.5 7.22884 5.79333 4.25806 10 4.25806C14.2067 4.25806 17.5 7.22884 17.5 10.7581C17.5 14.2873 14.2067 17.2581 10 17.2581ZM7.5 9.75806V9.25806H7H5H4.5V9.75806V11.7581V12.2581H5H7H7.5V11.7581V9.75806ZM15.5 9.75806V9.25806H15H13H12.5V9.75806V11.7581V12.2581H13H15H15.5V11.7581V9.75806ZM9 9.25806H8.5V9.75806V11.7581V12.2581H9H11H11.5V11.7581V9.75806V9.25806H11H9Z" fill="#6B7280" stroke="#6B7280"/>
</svg>
