<svg width="20" height="21" viewBox="0 0 20 21" fill="none" xmlns="http://www.w3.org/2000/svg">
<path d="M4 4.75806C3.46957 4.75806 2.96086 4.96877 2.58579 5.34384C2.21071 5.71892 2 6.22762 2 6.75806V7.75806H18V6.75806C18 6.22762 17.7893 5.71892 17.4142 5.34384C17.0391 4.96877 16.5304 4.75806 16 4.75806H4Z" fill="#111928"/>
<path fill-rule="evenodd" clip-rule="evenodd" d="M18 9.75806H2V14.7581C2 15.2885 2.21071 15.7972 2.58579 16.1723C2.96086 16.5473 3.46957 16.7581 4 16.7581H16C16.5304 16.7581 17.0391 16.5473 17.4142 16.1723C17.7893 15.7972 18 15.2885 18 14.7581V9.75806ZM4 13.7581C4 13.4928 4.10536 13.2385 4.29289 13.051C4.48043 12.8634 4.73478 12.7581 5 12.7581H6C6.26522 12.7581 6.51957 12.8634 6.70711 13.051C6.89464 13.2385 7 13.4928 7 13.7581C7 14.0233 6.89464 14.2776 6.70711 14.4652C6.51957 14.6527 6.26522 14.7581 6 14.7581H5C4.73478 14.7581 4.48043 14.6527 4.29289 14.4652C4.10536 14.2776 4 14.0233 4 13.7581ZM9 12.7581C8.73478 12.7581 8.48043 12.8634 8.29289 13.051C8.10536 13.2385 8 13.4928 8 13.7581C8 14.0233 8.10536 14.2776 8.29289 14.4652C8.48043 14.6527 8.73478 14.7581 9 14.7581H10C10.2652 14.7581 10.5196 14.6527 10.7071 14.4652C10.8946 14.2776 11 14.0233 11 13.7581C11 13.4928 10.8946 13.2385 10.7071 13.051C10.5196 12.8634 10.2652 12.7581 10 12.7581H9Z" fill="#111928"/>
</svg>
