<svg width="150" height="33" viewBox="0 0 150 33" fill="none" xmlns="http://www.w3.org/2000/svg">
<path d="M149.977 14.7517V12.1126H146.7V8.01105L146.59 8.0462L143.514 8.9837H143.455V12.0892H138.599V10.3548C138.599 9.55792 138.786 8.93683 139.138 8.52667C139.489 8.11652 140.005 7.91144 140.638 7.91144C141.107 7.91144 141.599 8.02863 142.068 8.23956L142.185 8.28644V5.51964L142.138 5.4962C141.693 5.338 141.083 5.25597 140.333 5.25597C139.384 5.25597 138.517 5.46691 137.755 5.88175C136.993 6.28019 136.396 6.87784 135.986 7.62784C135.564 8.37784 135.353 9.24503 135.353 10.1943V12.0927H133.079V14.7294H135.364V25.8388H138.634V14.7294H143.494V21.7841C143.494 24.6903 144.86 26.1669 147.572 26.1669C148.017 26.1669 148.486 26.1107 148.955 26.0146C149.441 25.9091 149.775 25.8036 149.963 25.6982L150.009 25.6747V23.0146L149.877 23.1036C149.701 23.2208 149.479 23.3228 149.221 23.3931C148.963 23.4634 148.74 23.5103 148.574 23.5103C147.941 23.5103 147.472 23.3462 147.184 23.0099C146.886 22.6759 146.739 22.0841 146.739 21.2521V14.7599H149.996L149.989 14.7435L149.977 14.7517ZM125.73 23.5173C124.543 23.5173 123.606 23.1224 122.941 22.3454C122.282 21.5661 121.945 20.454 121.945 19.0407C121.945 17.5829 122.282 16.4392 122.945 15.647C123.606 14.8595 124.534 14.4587 125.706 14.4587C126.843 14.4587 127.733 14.8407 128.389 15.5954C129.046 16.3548 129.374 17.4868 129.374 18.961C129.374 20.454 129.069 21.6013 128.46 22.3677C127.85 23.1294 126.936 23.5161 125.741 23.5161L125.73 23.5173ZM125.882 11.7821C123.62 11.7821 121.818 12.4454 120.533 13.7556C119.256 15.0681 118.602 16.8798 118.602 19.1462C118.602 21.3025 119.235 23.031 120.492 24.2907C121.746 25.5564 123.454 26.2126 125.563 26.2126C127.757 26.2126 129.524 25.5329 130.804 24.2146C132.093 22.888 132.732 21.0903 132.732 18.879C132.732 16.6923 132.123 14.9462 130.916 13.6993C129.709 12.4407 128.017 11.8056 125.877 11.8056L125.882 11.7821ZM113.314 11.8056C111.768 11.8056 110.497 12.1993 109.518 12.9775C108.543 13.7603 108.041 14.7821 108.041 16.0243C108.041 16.6735 108.151 17.2431 108.364 17.7353C108.575 18.2204 108.904 18.6493 109.342 19.0103C109.775 19.3618 110.443 19.7368 111.334 20.1212C112.084 20.4259 112.635 20.6837 112.991 20.8946C113.343 21.0903 113.591 21.2931 113.718 21.4888C113.858 21.6763 113.929 21.9458 113.929 22.2622C113.929 23.1927 113.239 23.6403 111.819 23.6403C111.289 23.6403 110.687 23.5302 110.029 23.3122C109.364 23.0966 108.748 22.7849 108.192 22.3841L108.052 22.2903V25.431L108.098 25.4544C108.567 25.6653 109.145 25.8528 109.833 25.9935C110.518 26.1458 111.145 26.2161 111.684 26.2161C113.36 26.2161 114.708 25.8177 115.692 25.0396C116.677 24.2521 117.18 23.1997 117.18 21.9177C117.18 20.9919 116.911 20.195 116.378 19.5564C115.85 18.9165 114.936 18.3329 113.655 17.8173C112.644 17.4071 111.991 17.0673 111.71 16.8095C111.452 16.5564 111.332 16.2001 111.332 15.7501C111.332 15.3517 111.496 15.0306 111.83 14.7728C112.165 14.5091 112.634 14.3778 113.22 14.3778C113.764 14.3778 114.321 14.4599 114.884 14.6298C115.434 14.8032 115.921 15.0282 116.325 15.3048L116.462 15.3985V12.3985L116.415 12.3751C116.034 12.211 115.54 12.0739 114.939 11.965C114.341 11.8513 113.798 11.8009 113.327 11.8009L113.314 11.8056ZM99.4992 23.5314C98.3156 23.5314 97.3781 23.14 96.7219 22.3595C96.0539 21.586 95.7199 20.4728 95.7199 19.0548C95.7199 17.6017 96.0551 16.4532 96.7207 15.6646C97.377 14.8771 98.3074 14.4763 99.4746 14.4763C100.611 14.4763 101.514 14.8583 102.164 15.613C102.811 16.3747 103.148 17.5068 103.148 18.981C103.148 20.4716 102.832 21.6177 102.223 22.3853C101.625 23.147 100.711 23.5337 99.5039 23.5337L99.4992 23.5314ZM99.668 11.8032C97.3945 11.8032 95.5899 12.4642 94.3125 13.7743C93.027 15.0868 92.3789 16.8974 92.3789 19.165C92.3789 21.3212 93.0117 23.0485 94.2574 24.3095C95.5137 25.5751 97.2176 26.2314 99.3258 26.2314C101.529 26.2314 103.287 25.5517 104.576 24.2275C105.858 22.8985 106.509 21.1009 106.509 18.8896C106.509 16.7017 105.9 14.9556 104.705 13.7099C103.498 12.4501 101.803 11.815 99.6656 11.815L99.668 11.8032ZM87.4336 14.5196V12.129H84.1992V25.8751H87.4336V18.8439C87.4336 17.6485 87.7031 16.6642 88.2387 15.92C88.766 15.1794 89.4691 14.8185 90.3246 14.8185C90.6176 14.8185 90.9457 14.8653 91.3066 14.9591C91.6582 15.0528 91.9113 15.1466 92.0566 15.2638L92.1973 15.3575V12.0997L92.1457 12.0763C91.841 11.9403 91.4191 11.8747 90.8801 11.8747C90.0715 11.8747 89.3449 12.1372 88.7215 12.6482C88.1707 13.1028 87.7758 13.7216 87.4734 14.495H87.4148L87.4441 14.5185L87.4336 14.5196ZM78.3867 11.8009C76.8984 11.8009 75.5742 12.1114 74.4492 12.7384C73.3148 13.3712 72.4453 14.2618 71.8477 15.4103C71.2617 16.547 70.957 17.8771 70.957 19.3595C70.957 20.6603 71.2523 21.8485 71.8242 22.9009C72.4031 23.9556 73.2188 24.7759 74.25 25.3501C75.2742 25.9161 76.4648 26.2056 77.782 26.2056C79.3195 26.2056 80.6297 25.9009 81.6844 25.2915L81.7313 25.2681V22.3009L81.5906 22.3982C81.1137 22.7497 80.5828 23.0251 80.0086 23.2243C79.4367 23.4235 78.9164 23.5243 78.4617 23.5243C77.1891 23.5243 76.1719 23.1259 75.4312 22.3466C74.6812 21.5497 74.3063 20.4482 74.3063 19.0653C74.3063 17.6591 74.7047 16.5341 75.4734 15.7138C76.2469 14.87 77.2641 14.4482 78.5086 14.4482C79.5633 14.4482 80.6027 14.8114 81.5824 15.5146L81.723 15.6083V12.4911L81.6844 12.4677C81.3152 12.2568 80.8137 12.0927 80.1844 11.9591C79.568 11.8302 78.9609 11.7669 78.382 11.7669L78.3867 11.8009ZM68.7375 12.095H65.5078V25.8528H68.7422V12.095H68.7375ZM67.1438 6.24738C66.6117 6.24738 66.1477 6.42784 65.7656 6.78644C65.3836 7.14738 65.1891 7.59972 65.1891 8.13409C65.1891 8.66144 65.3848 9.10675 65.7633 9.45831C66.1383 9.80988 66.607 9.98331 67.1461 9.98331C67.6852 9.98331 68.1539 9.80753 68.5348 9.45597C68.9192 9.10441 69.1137 8.65909 69.1137 8.13175C69.1137 7.61613 68.9262 7.17081 68.5512 6.79581C68.1762 6.44425 67.7074 6.25675 67.1449 6.25675L67.1438 6.24738ZM59.0707 11.0966V25.8622H62.3754V6.69152H57.8051L52.0125 20.9392L46.3758 6.68917H41.625V25.8751H44.7305V11.1153H44.8359L50.7891 25.8786H53.127L58.9863 11.1165H59.0977L59.0801 11.1095L59.0707 11.0966ZM16.8012 17.0614H32.0121V32.2853H16.7777L16.7988 17.072L16.8012 17.0614ZM3.05194e-06 17.0708H15.2086V32.2853H-0.00468445L3.05194e-06 17.072V17.0708ZM16.8023 0.269641H32.0133V15.4806H16.793L16.8023 0.264954V0.269641ZM3.05194e-06 0.267297H15.2086V15.4806H-0.00468445L3.05194e-06 0.264954V0.267297Z" fill="#4B5563"/>
</svg>
