<svg width="20" height="21" viewBox="0 0 20 21" fill="none" xmlns="http://www.w3.org/2000/svg">
<path d="M10.894 3.31097C10.8109 3.14508 10.6832 3.00561 10.5253 2.90813C10.3674 2.81066 10.1856 2.75903 10 2.75903C9.81446 2.75903 9.63257 2.81066 9.47468 2.90813C9.3168 3.00561 9.18915 3.14508 9.10601 3.31097L2.10601 17.311C2.01915 17.4846 1.98469 17.6797 2.00683 17.8725C2.02897 18.0653 2.10676 18.2476 2.2307 18.397C2.35464 18.5463 2.51937 18.6564 2.70481 18.7138C2.89025 18.7711 3.08837 18.7733 3.27501 18.72L8.27501 17.291C8.48398 17.2312 8.66779 17.105 8.79861 16.9314C8.92943 16.7578 9.00013 16.5463 9.00001 16.329V11.758C9.00001 11.4927 9.10536 11.2384 9.2929 11.0509C9.48044 10.8633 9.73479 10.758 10 10.758C10.2652 10.758 10.5196 10.8633 10.7071 11.0509C10.8946 11.2384 11 11.4927 11 11.758V16.329C10.9999 16.5463 11.0706 16.7578 11.2014 16.9314C11.3322 17.105 11.516 17.2312 11.725 17.291L16.725 18.719C16.9116 18.7724 17.1097 18.7704 17.2951 18.7132C17.4806 18.6559 17.6454 18.546 17.7694 18.3967C17.8934 18.2474 17.9714 18.0653 17.9937 17.8725C18.016 17.6797 17.9817 17.4846 17.895 17.311L10.895 3.31097H10.894Z" fill="#6B7280"/>
</svg>
