<svg width="124" height="39" viewBox="0 0 124 39" fill="none" xmlns="http://www.w3.org/2000/svg">
<path d="M50.5488 18.0325C54.4435 18.9793 56.0313 20.4494 56.0313 23.1074C56.0313 26.2524 53.6285 28.2847 49.9096 28.2847C47.281 28.2847 44.8441 27.3508 42.8635 25.5826C42.8229 25.5463 42.798 25.4955 42.7943 25.4411C42.7905 25.3867 42.8082 25.333 42.8436 25.2915L44.5936 23.2098C44.6115 23.1885 44.6334 23.171 44.6581 23.1583C44.6828 23.1455 44.7098 23.1379 44.7374 23.1357C44.7651 23.1335 44.793 23.1368 44.8194 23.1455C44.8458 23.1542 44.8702 23.168 44.8912 23.1862C46.5936 24.6599 48.1155 25.288 49.9808 25.288C51.6608 25.288 52.7046 24.5605 52.7046 23.3915C52.7046 22.3359 52.1883 21.7461 49.1293 21.0416C45.5363 20.1725 43.4563 19.0481 43.4563 15.8697C43.4563 12.9059 45.8673 10.8359 49.318 10.8359C51.6644 10.8359 53.6738 11.531 55.4573 12.9617C55.5432 13.0311 55.5608 13.1558 55.4967 13.2464L53.9354 15.4457C53.9191 15.4683 53.8985 15.4874 53.8747 15.502C53.851 15.5167 53.8246 15.5264 53.797 15.5308C53.7695 15.5352 53.7413 15.5341 53.7142 15.5275C53.6871 15.521 53.6616 15.5092 53.6391 15.4927C52.1407 14.3754 50.7117 13.8332 49.2698 13.8332C47.7832 13.8332 46.7835 14.5477 46.7835 15.6092C46.7835 16.7324 47.3539 17.2675 50.5494 18.0308L50.5488 18.0325ZM64.4445 14.8806C62.8333 14.8806 61.5113 15.5157 60.4205 16.8153V15.351C60.4205 15.2955 60.3984 15.2422 60.3592 15.203C60.3199 15.1637 60.2667 15.1417 60.2111 15.1417H57.3497C57.2942 15.1417 57.2409 15.1637 57.2016 15.203C57.1624 15.2422 57.1403 15.2955 57.1403 15.351V31.6225C57.1403 31.7371 57.2344 31.8312 57.3497 31.8312H60.2117C60.3276 31.8312 60.4217 31.7371 60.4217 31.6219V26.4852C61.5119 27.7084 62.8345 28.307 64.4463 28.307C67.4425 28.307 70.4739 26.0019 70.4739 21.5938C70.4739 17.1857 67.4407 14.8806 64.4445 14.8806ZM67.1437 21.5944C67.1437 23.8384 65.7618 25.405 63.7824 25.405C61.8242 25.405 60.3482 23.7672 60.3482 21.5944C60.3482 19.4215 61.8242 17.7838 63.7824 17.7838C65.73 17.7838 67.1443 19.3862 67.1443 21.5944H67.1437ZM78.2444 14.8806C74.3868 14.8806 71.3654 17.8502 71.3654 21.6432C71.3654 25.3938 74.3656 28.3323 78.1962 28.3323C82.0674 28.3323 85.0982 25.372 85.0982 21.5944C85.0982 17.8297 82.0873 14.88 78.2438 14.88L78.2444 14.8806ZM78.2438 25.4279C76.1915 25.4279 74.6449 23.7796 74.6449 21.5938C74.6449 19.3992 76.1386 17.8067 78.1968 17.8067C80.2609 17.8067 81.8192 19.455 81.8192 21.642C81.8192 23.8355 80.315 25.4273 78.2438 25.4273V25.4279ZM93.3357 15.1417C93.4515 15.1417 93.545 15.2358 93.545 15.351V17.8108C93.5451 17.8383 93.5397 17.8655 93.5293 17.8909C93.5188 17.9163 93.5035 17.9394 93.4841 17.9588C93.4647 17.9783 93.4416 17.9937 93.4163 18.0042C93.3909 18.0148 93.3637 18.0202 93.3362 18.0202H90.1872V23.9366C90.1872 24.8716 90.5977 25.288 91.5162 25.288C92.1007 25.2911 92.6771 25.1518 93.1957 24.8822C93.2278 24.8663 93.2633 24.8588 93.2991 24.8605C93.3348 24.8622 93.3696 24.873 93.4 24.8918C93.4304 24.9106 93.4556 24.9369 93.473 24.9682C93.4904 24.9994 93.4996 25.0346 93.4997 25.0704V27.412C93.4997 27.4867 93.4586 27.5573 93.3939 27.5943C92.5912 28.0489 91.7397 28.2606 90.7123 28.2606C88.1878 28.2606 86.9076 26.9569 86.9076 24.3841V18.0208H85.5316C85.5042 18.0207 85.477 18.0152 85.4517 18.0047C85.4264 17.9941 85.4035 17.9787 85.3841 17.9592C85.3648 17.9398 85.3495 17.9167 85.3391 17.8914C85.3287 17.866 85.3233 17.8388 85.3234 17.8114V15.351C85.3234 15.2358 85.4163 15.1417 85.5316 15.1417H86.9076V11.9215C86.9076 11.8062 87.0017 11.7121 87.1182 11.7121H89.9796C90.0955 11.7121 90.189 11.8062 90.189 11.9215V15.1417H93.338H93.3357ZM109.198 15.154C109.285 15.154 109.363 15.2069 109.394 15.2893L112.737 24.0125L115.789 15.294C115.804 15.2528 115.83 15.2172 115.866 15.1919C115.901 15.1666 115.944 15.153 115.988 15.1528H118.967C119.001 15.1528 119.035 15.1611 119.065 15.1771C119.095 15.1931 119.121 15.2162 119.14 15.2445C119.159 15.2728 119.171 15.3053 119.175 15.3392C119.179 15.3732 119.174 15.4075 119.161 15.4392L114.196 28.2706C113.167 30.9186 111.998 31.903 109.885 31.903C108.755 31.903 107.841 31.6689 106.827 31.1209C106.781 31.0957 106.746 31.0537 106.729 31.0034C106.712 30.9531 106.716 30.8983 106.738 30.8504L107.708 28.7216C107.72 28.6954 107.737 28.6718 107.758 28.6524C107.78 28.633 107.805 28.6181 107.832 28.6087C107.859 28.5999 107.888 28.5968 107.917 28.5995C107.946 28.6022 107.974 28.6108 107.999 28.6246C108.542 28.9215 109.073 29.0715 109.578 29.0715C110.201 29.0715 110.658 28.8668 111.123 27.8354L107.03 18.0208H104.357V27.8383C104.357 27.9542 104.263 28.0483 104.148 28.0483H101.286C101.258 28.0483 101.231 28.0428 101.205 28.0323C101.18 28.0217 101.157 28.0063 101.137 27.9868C101.118 27.9673 101.102 27.9441 101.092 27.9186C101.081 27.8932 101.076 27.8659 101.076 27.8383V18.0208H99.7013C99.6458 18.0203 99.5927 17.9981 99.5534 17.9588C99.5141 17.9195 99.4919 17.8664 99.4914 17.8108V15.3393C99.4914 15.2234 99.5855 15.1293 99.7008 15.1293H101.076V14.5236C101.076 11.7092 102.473 10.2202 105.117 10.2202C106.203 10.2202 106.928 10.3937 107.495 10.5613C107.585 10.5889 107.644 10.6707 107.644 10.7624V13.1734C107.645 13.2068 107.637 13.2397 107.622 13.2695C107.607 13.2993 107.585 13.3251 107.558 13.3447C107.531 13.3643 107.5 13.3772 107.467 13.3821C107.434 13.3871 107.401 13.3841 107.369 13.3734C106.832 13.1946 106.353 13.0758 105.757 13.0758C104.757 13.0758 104.31 13.5951 104.31 14.7588V15.154H109.198H109.198ZM97.9478 15.1417C98.063 15.1417 98.1571 15.2358 98.1571 15.351V27.8378C98.1571 27.953 98.063 28.0471 97.9472 28.0471H95.0851C95.0295 28.0471 94.9762 28.0251 94.9369 27.9858C94.8975 27.9466 94.8753 27.8933 94.8752 27.8378V15.351C94.8752 15.2358 94.9693 15.1417 95.0845 15.1417H97.9466H97.9478ZM96.5311 9.45635C97.0754 9.45635 97.5975 9.67258 97.9823 10.0575C98.3672 10.4423 98.5835 10.9644 98.5835 11.5087C98.5835 12.053 98.3672 12.575 97.9823 12.9599C97.5975 13.3447 97.0754 13.561 96.5311 13.561C95.9868 13.561 95.4648 13.3447 95.0799 12.9599C94.6951 12.575 94.4788 12.053 94.4788 11.5087C94.4788 10.9644 94.6951 10.4423 95.0799 10.0575C95.4648 9.67258 95.9868 9.45635 96.5311 9.45635ZM121.605 19.1557C121.34 19.1567 121.077 19.1053 120.833 19.0045C120.588 18.9036 120.365 18.7553 120.178 18.5681C119.991 18.3808 119.843 18.1584 119.742 17.9136C119.641 17.6688 119.59 17.4064 119.591 17.1416C119.591 16.8758 119.643 16.6125 119.745 16.3669C119.846 16.1213 119.996 15.8981 120.184 15.7102C120.372 15.5222 120.595 15.3731 120.84 15.2715C121.086 15.1698 121.349 15.1175 121.615 15.1176C121.88 15.1164 122.142 15.1676 122.387 15.2684C122.632 15.3691 122.854 15.5173 123.042 15.7044C123.229 15.8916 123.377 16.1139 123.478 16.3587C123.579 16.6034 123.63 16.8657 123.629 17.1305C123.629 17.3964 123.577 17.6598 123.475 17.9055C123.374 18.1513 123.225 18.3746 123.036 18.5627C122.848 18.7508 122.625 18.9001 122.38 19.0019C122.134 19.1038 121.871 19.1562 121.605 19.1563V19.1557ZM121.615 15.3181C120.584 15.3181 119.803 16.1384 119.803 17.1422C119.803 18.146 120.578 18.9552 121.605 18.9552C122.636 18.9552 123.418 18.1354 123.418 17.1311C123.418 16.1272 122.641 15.3181 121.615 15.3181ZM122.062 17.338L122.631 18.1354H122.151L121.639 17.4039H121.198V18.1354H120.795V16.0214H121.739C122.229 16.0214 122.553 16.2731 122.553 16.6959C122.553 17.0428 122.353 17.2545 122.062 17.3369L122.062 17.338ZM121.72 16.3842H121.197V17.0523H121.72C121.983 17.0523 122.138 16.9241 122.138 16.7171C122.138 16.4995 121.983 16.3836 121.72 16.3836V16.3842ZM18.6957 0.942505C8.47178 0.942505 0.183746 9.3458 0.183746 19.5703C0.183158 29.1773 7.49973 36.9326 16.8651 38.1087H20.5263C29.8917 36.9326 37.2082 29.1773 37.2082 19.5697C37.2082 9.3458 28.9196 0.942505 18.6963 0.942505H18.6957ZM27.1854 27.6437C27.1066 27.7732 27.0029 27.8859 26.8805 27.9753C26.758 28.0647 26.6191 28.129 26.4717 28.1646C26.3243 28.2002 26.1714 28.2064 26.0216 28.1828C25.8718 28.1592 25.7282 28.1063 25.5989 28.0271C21.2514 25.3703 15.7801 24.7705 9.33622 26.2424C9.18856 26.2763 9.03566 26.2808 8.88626 26.2556C8.73686 26.2304 8.59389 26.176 8.46554 26.0955C8.33719 26.015 8.22597 25.91 8.13825 25.7864C8.05052 25.6629 7.98801 25.5233 7.9543 25.3756C7.92037 25.2278 7.91591 25.0749 7.94119 24.9254C7.96647 24.7759 8.02098 24.6329 8.1016 24.5046C8.18223 24.3762 8.28738 24.265 8.41104 24.1773C8.53471 24.0896 8.67445 24.0272 8.82226 23.9936C15.8742 22.3824 21.9229 23.0763 26.8026 26.0577C27.0635 26.2176 27.2503 26.4745 27.3219 26.7719C27.3936 27.0694 27.3443 27.3831 27.1848 27.6443L27.1854 27.6437ZM29.4506 22.6029C29.2503 22.929 28.9288 23.1622 28.5566 23.2513C28.1845 23.3404 27.7922 23.2781 27.4659 23.078C22.491 20.0202 14.9051 19.134 9.01867 20.9211C8.65232 21.0316 8.25709 20.9925 7.9195 20.8123C7.58191 20.6321 7.32948 20.3255 7.21746 19.9596C6.98812 19.1951 7.4174 18.3913 8.18011 18.1601C14.9045 16.1196 23.2625 17.1075 28.9766 20.6182C29.3026 20.8186 29.5357 21.1402 29.6247 21.5123C29.7137 21.8845 29.6513 22.2767 29.4512 22.6029H29.4506ZM29.6459 17.3539C23.6783 13.8103 13.8354 13.4845 8.13894 15.2134C7.69944 15.3466 7.22504 15.2997 6.82008 15.0831C6.41513 14.8666 6.1128 14.498 5.97961 14.0585C5.84642 13.619 5.89327 13.1446 6.10987 12.7396C6.32646 12.3347 6.69505 12.0323 7.13455 11.8991C13.6737 9.91445 24.5445 10.2979 31.4141 14.3748C31.6097 14.4908 31.7806 14.6442 31.9169 14.8263C32.0532 15.0083 32.1523 15.2154 32.2086 15.4358C32.2648 15.6561 32.2771 15.8854 32.2447 16.1105C32.2123 16.3356 32.1359 16.5521 32.0198 16.7476C31.9039 16.9434 31.7505 17.1144 31.5684 17.2508C31.3863 17.3872 31.1792 17.4863 30.9587 17.5426C30.7383 17.5988 30.5089 17.6111 30.2837 17.5786C30.0586 17.5461 29.842 17.4696 29.6464 17.3533L29.6459 17.3539Z" fill="#4B5563"/>
</svg>
