<svg width="16" height="12" viewBox="0 0 16 12" fill="none" xmlns="http://www.w3.org/2000/svg">
<path d="M12.8883 3.7769L12.8884 3.77682L14.8882 2.7769C14.9264 2.75786 14.9687 2.74887 15.0112 2.75079C15.0538 2.7527 15.0952 2.76546 15.1314 2.78785C15.1676 2.81024 15.1976 2.84152 15.2183 2.87872C15.2391 2.91592 15.25 2.9578 15.25 3.0004V8.9996C15.25 9.0422 15.2391 9.08408 15.2183 9.12128C15.1976 9.15848 15.1676 9.18976 15.1314 9.21215C15.0952 9.23454 15.0538 9.2473 15.0112 9.24921C14.9687 9.25113 14.9264 9.24214 14.8883 9.2231L12.8884 8.22318L12.8883 8.2231C12.8467 8.20235 12.8118 8.17045 12.7874 8.13098C12.763 8.09151 12.75 8.04602 12.75 7.9996V4.0004C12.75 3.95398 12.763 3.90849 12.7874 3.86902C12.8118 3.82955 12.8467 3.79765 12.8883 3.7769ZM0.75 2C0.75 1.66848 0.881696 1.35054 1.11612 1.11612C1.35054 0.881696 1.66848 0.75 2 0.75H8C8.33152 0.75 8.64946 0.881696 8.88388 1.11612C9.1183 1.35054 9.25 1.66848 9.25 2V10C9.25 10.3315 9.1183 10.6495 8.88388 10.8839C8.64946 11.1183 8.33152 11.25 8 11.25H2C1.66848 11.25 1.35054 11.1183 1.11612 10.8839C0.881696 10.6495 0.75 10.3315 0.75 10V2Z" fill="#1F2A37" stroke="#1F2A37" stroke-width="1.5"/>
</svg>
